<?xml version="1.0" encoding="utf-8"?>
<!-- Generator: Adobe Illustrator 24.1.3, SVG Export Plug-In . SVG Version: 6.00 Build 0)  -->
<svg version="1.1" id="Layer_1" xmlns="http://www.w3.org/2000/svg" xmlns:xlink="http://www.w3.org/1999/xlink" x="0px" y="0px"
	 viewBox="0 0 28 24" style="enable-background:new 0 0 28 24;" xml:space="preserve">
<style type="text/css">
	.st0{fill:#97CAEB;}
</style>
<g>
	<path class="st0" d="M8.6,15.6C12.9,7.6,19,2.2,27.9,0.3c0,0,0.1,0.1,0.1,0.1c-0.1,0.1-0.1,0.1-0.2,0.2c-4.7,2.1-8.3,5.6-11.2,9.7
		C14,14,12,18,10.3,22.1c-0.2,0.4-0.3,0.6-0.7,0.7c-1,0.3-1.9,0.6-2.9,0.9c-0.5-2.2-1.2-4.4-2.2-6.4c-1.1-2-2.5-3.7-4.4-4.9
		c1.3-1.1,3.1-1.5,4.5-0.9C6,12.1,7.1,13.3,8,14.6C8.2,14.9,8.4,15.2,8.6,15.6"/>
</g>
</svg>
