<?xml version="1.0" encoding="utf-8"?>
<!-- Generator: Adobe Illustrator 22.1.0, SVG Export Plug-In . SVG Version: 6.00 Build 0)  -->
<svg version="1.1" id="Layer_1" xmlns="http://www.w3.org/2000/svg" xmlns:xlink="http://www.w3.org/1999/xlink" x="0px" y="0px"
	 viewBox="0 0 94.5 72" style="enable-background:new 0 0 94.5 72;" xml:space="preserve">
<style type="text/css">
	.st0{fill:#002A3A;}
	.st1{fill:#97CAEB;}
</style>
<title>logo-cp-footer</title>
<g id="Layer_2_1_">
	<g id="Layer_1-2">
		<path class="st0" d="M94.5,8.8V7.7H85v-8h-1.2v8H10.7v-8H9.5v8H0v1.2h9.5v8.4H0v1.2h9.5v46.4c0,4.2,3.4,7.5,7.6,7.6h60.3
			c4.2,0,7.6-3.4,7.6-7.6V18.4h9.5v-1.2H85V8.8H94.5z M10.7,8.8h73.1v8.4H10.7V8.8z"/>
		<path class="st1" d="M44.5,54.6c-1.1,1-2.4,1.8-3.8,2.1c-1.7,0.5-3.5,0.8-5.3,0.8c-3.2,0.1-6.4-1.1-8.7-3.4
			c-2.4-2.3-3.7-5.5-3.5-8.8c0-2,0.4-4,1.2-5.8c0.8-2,2.2-3.8,3.9-5.1c2.2-1.5,4.7-2.2,7.3-2.1c1.8,0,3.6,0.3,5.4,0.9
			c1.2,0.5,2.4,1.1,3.4,2l0.6,5.7L41,41.4l-0.5-3.2c-0.7-0.5-1.5-0.8-2.4-1c-0.9-0.2-1.7-0.3-2.6-0.3c-1.9-0.1-3.7,0.7-5,2.1
			c-1.4,1.8-2.1,4-1.9,6.2c0,2.8,0.7,4.9,2,6.1c1.4,1.3,3.3,1.9,5.2,1.9c1.6,0.1,3.2-0.3,4.7-1l0.5-3.6l4.1,0.4L44.5,54.6z"/>
		<path class="st1" d="M71.3,40.8c0.2,2.4-0.8,4.7-2.7,6.2c-1.8,1.3-4,2.1-6.3,2h-3.7v3.9h3.7v4.3H50.9v-4.2h2.6V37.1h-2.6v-4.3
			h11.2c3,0,5.3,0.7,6.9,2.1C70.6,36.4,71.4,38.6,71.3,40.8 M65.9,40.8c0.1-1-0.3-2-1-2.8c-1-0.8-2.3-1.1-3.5-1h-2.9v7.7h2.8
			c1.7,0,2.9-0.4,3.6-1.1C65.6,42.9,66,41.9,65.9,40.8"/>
	</g>
</g>
</svg>
